<?xml version="1.0" encoding="utf-8"?>
<svg version="1.1" xmlns:xlink="http://www.w3.org/1999/xlink" width="28px" height="22px" xmlns="http://www.w3.org/2000/svg">
  <g transform="matrix(1 0 0 1 -759 -847 )">
    <path d="M 27.4941935483871 3.03703703703704  C 27.8313978494624 3.38271604938272  28 3.80246913580247  28 4.2962962962963  C 28 4.79012345679012  27.8313978494624 5.20987654320987  27.4941935483871 5.55555555555555  L 14.4154838709677 18.962962962963  L 11.9587096774194 21.4814814814815  C 11.6215053763441 21.8271604938272  11.2120430107527 22  10.7303225806452 22  C 10.2486021505376 22  9.83913978494624 21.8271604938272  9.50193548387097 21.4814814814815  L 7.04516129032258 18.962962962963  L 0.505806451612903 12.2592592592593  C 0.168602150537635 11.9135802469136  0 11.4938271604938  0 11  C 0 10.5061728395062  0.168602150537635 10.0864197530864  0.505806451612903 9.74074074074074  L 2.96258064516129 7.22222222222222  C 3.29978494623656 6.87654320987654  3.70924731182796 6.7037037037037  4.19096774193548 6.7037037037037  C 4.67268817204301 6.7037037037037  5.08215053763441 6.87654320987654  5.41935483870968 7.22222222222222  L 10.7303225806452 12.6851851851852  L 22.5806451612903 0.518518518518519  C 22.9178494623656 0.172839506172839  23.327311827957 0  23.8090322580645 0  C 24.290752688172 0  24.7002150537634 0.172839506172839  25.0374193548387 0.518518518518519  L 27.4941935483871 3.03703703703704  Z " fill-rule="nonzero" fill="#7f7f7f" stroke="none" transform="matrix(1 0 0 1 759 847 )" />
  </g>
</svg>