<?xml version="1.0" encoding="utf-8"?>
<svg version="1.1" xmlns:xlink="http://www.w3.org/1999/xlink" width="50px" height="50px" xmlns="http://www.w3.org/2000/svg">
  <g transform="matrix(1 0 0 1 -931 -136 )">
    <path d="M 13 33  L 13 45  L 37 45  L 37 33  L 13 33  Z M 41 32.2916666666667  L 41 45.8333333333333  L 45 45.8333333333333  L 45 16.6666666666667  C 45.8333333333333 16.3628472222222  45.7248263888889 15.9450954861111  45.5078125 15.4134114583333  C 45.2907986111111 14.8817274305556  45.0737847222222 14.5073784722222  44.8567708333333 14.2903645833333  L 35.7096354166667 5.14322916666667  C 35.4926215277778 4.92621527777777  35.1236979166667 4.70920138888888  34.6028645833333 4.4921875  C 34.08203125 4.27517361111111  33.6588541666667 4.16666666666667  33 4.16666666666667  L 33 17.7083333333333  C 33.3333333333333 18.5763888888889  33.0295138888889 19.3142361111111  32.421875 19.921875  C 31.8142361111111 20.5295138888889  31.0763888888889 20.8333333333333  30.2083333333333 21  L 11.4583333333333 21  C 10.5902777777778 20.8333333333333  9.85243055555556 20.5295138888889  9.24479166666667 19.921875  C 8.63715277777778 19.3142361111111  8.33333333333333 18.5763888888889  9 17.7083333333333  L 9 4.16666666666667  L 5 4.16666666666667  L 5 45.8333333333333  L 9 45.8333333333333  L 9 32.2916666666667  C 8.33333333333333 31.4236111111111  8.63715277777778 30.6857638888889  9.24479166666667 30.078125  C 9.85243055555556 29.4704861111111  10.5902777777778 29.1666666666667  11.4583333333333 29  L 38.5416666666667 29  C 39.4097222222222 29.1666666666667  40.1475694444445 29.4704861111111  40.7552083333333 30.078125  C 41.3628472222222 30.6857638888889  41.6666666666667 31.4236111111111  41 32.2916666666667  Z M 28.857421875 16.357421875  C 29.0635850694444 16.1512586805556  29.1666666666667 15.9071180555556  29 15.625  L 29 5.20833333333333  C 29.1666666666667 4.92621527777777  29.0635850694444 4.68207465277777  28.857421875 4.47591145833333  C 28.6512586805556 4.26974826388888  28.4071180555556 4.16666666666667  28.125 4.16666666666667  L 21.875 4.16666666666667  C 21.5928819444444 4.16666666666667  21.3487413194444 4.26974826388888  21.142578125 4.47591145833333  C 20.9364149305556 4.68207465277777  20.8333333333333 4.92621527777777  21 5.20833333333333  L 21 15.625  C 20.8333333333333 15.9071180555556  20.9364149305556 16.1512586805556  21.142578125 16.357421875  C 21.3487413194444 16.5635850694444  21.5928819444444 16.6666666666667  21.875 16.6666666666667  L 28.125 16.6666666666667  C 28.4071180555556 16.6666666666667  28.6512586805556 16.5635850694444  28.857421875 16.357421875  Z M 49.3489583333333 13.8020833333333  C 49.7829861111111 14.84375  50 15.7986111111111  50 16.6666666666667  L 50 46.875  C 50 47.7430555555556  49.6961805555556 48.4809027777778  49.0885416666667 49.0885416666667  C 48.4809027777778 49.6961805555556  47.7430555555556 50  46.875 50  L 3.125 50  C 2.25694444444444 50  1.51909722222222 49.6961805555556  0.911458333333333 49.0885416666667  C 0.303819444444444 48.4809027777778  0 47.7430555555556  0 46.875  L 0 3.125  C 0 2.25694444444444  0.303819444444444 1.51909722222222  0.911458333333333 0.911458333333331  C 1.51909722222222 0.303819444444442  2.25694444444444 0  3.125 0  L 33.3333333333333 0  C 34.2013888888889 0  35.15625 0.217013888888884  36.1979166666667 0.651041666666669  C 37.2395833333333 1.08506944444444  38.0642361111111 1.60590277777777  38.671875 2.21354166666667  L 47.7864583333333 11.328125  C 48.3940972222222 11.9357638888889  48.9149305555556 12.7604166666667  49.3489583333333 13.8020833333333  Z " fill-rule="nonzero" fill="#555555" stroke="none" transform="matrix(1 0 0 1 931 136 )" />
  </g>
</svg>